# Blender v2.79 (sub 0) OBJ File: ''
# www.blender.org
mtllib fish.mtl
o 13009_Coral_Beauty_Angelfish_v1
v 0.000105 0.657075 -0.146890
v -0.001852 0.485889 -0.183311
v 0.082244 0.285667 -0.101084
v 0.033730 0.336660 0.001350
v 0.079101 0.258008 -0.257482
v 0.018106 0.427000 -0.090775
v 0.120447 -0.079323 -0.111170
v 0.104092 -0.045296 -0.328828
v 0.005672 0.258145 -0.365454
v 0.037827 -0.489832 -0.262902
v -0.001053 -0.504266 -0.116322
v 0.011293 -0.533379 -0.220863
v 0.022811 -0.182931 0.140986
v 0.000839 -0.460331 -0.302584
v 0.000450 -0.177275 -0.421027
v 0.043049 -0.339698 -0.367060
v 0.038831 0.048016 0.142168
v 0.064412 -0.260299 0.041786
v 0.023098 -0.498886 -0.241972
v 0.055324 -0.093832 -0.402528
v 0.074263 -0.330092 -0.299430
v 0.029708 -0.374031 0.033841
v 0.083628 -0.356019 -0.141033
v 0.066426 -0.381058 -0.082989
v 0.084460 -0.388265 -0.099103
v 0.081057 -0.403604 -0.174420
v 0.074864 -0.444514 -0.110989
v 0.069309 -0.446445 -0.158819
v 0.057977 -0.459035 -0.116244
v 0.007867 0.418550 -0.179533
v -0.000331 0.416380 -0.347392
v 0.000188 0.528647 -0.243154
v -0.001784 0.420267 -0.180856
v 0.001005 0.393600 -0.037939
v 0.002164 0.313060 0.110506
v 0.004894 0.324823 0.052252
v -0.001212 0.124198 0.152172
v 0.029963 -0.524428 -0.234126
v 0.185141 -0.011426 -0.065418
v 0.120406 -0.154163 -0.207011
v 0.112441 -0.165653 -0.214383
v 0.127849 -0.060408 -0.320255
v 0.155700 -0.008443 -0.215358
v 0.107144 -0.152889 -0.280819
v 0.106794 -0.162596 -0.284050
v -0.002667 0.535782 0.080344
v -0.113462 -0.091941 -0.056520
v -0.087768 0.267691 -0.106042
v -0.073506 -0.331141 -0.300913
v -0.048477 0.156057 -0.375151
v -0.039444 -0.496526 -0.192687
v 0.002413 0.417989 -0.054178
v -0.034565 -0.047106 0.149233
v -0.021031 -0.308343 0.092053
v -0.005106 0.321873 0.055034
v -0.002856 -0.518814 -0.255240
v -0.038613 -0.482522 -0.272959
v -0.030615 -0.491411 -0.243346
v -0.051987 -0.094694 -0.405546
v 0.000238 0.579401 -0.232292
v 0.005041 0.579554 0.075336
v -0.001480 0.662470 0.004364
v -0.034230 -0.356741 -0.370330
v 0.000214 0.040948 -0.418531
v -0.042050 -0.325414 0.071860
v -0.078710 -0.432737 -0.098121
v -0.069600 -0.451368 -0.152916
v -0.079451 -0.356107 -0.111021
v -0.054072 -0.434437 -0.084691
v -0.081592 -0.399831 -0.177965
v -0.060466 0.283017 -0.290209
v -0.000697 0.221115 -0.393075
v -0.000451 0.441589 0.010846
v -0.031290 0.235017 0.090853
v -0.019097 0.427275 -0.089443
v -0.025566 -0.528777 -0.241394
v -0.105845 -0.166393 -0.282149
v -0.182496 -0.015444 -0.066512
v -0.107126 -0.152997 -0.285446
v -0.159781 -0.004487 -0.193997
v -0.112856 -0.165385 -0.213501
v -0.128736 -0.057392 -0.322059
v -0.107249 -0.047174 -0.318313
vt 0.372393 0.281489
vt 0.634177 0.272590
vt 0.480214 0.442841
vt 0.391960 0.127518
vt 0.608674 0.165632
vt 0.740515 0.212295
vt 0.754357 0.283206
vt 0.306790 0.203416
vt 0.919229 0.238772
vt 0.869226 0.402304
vt 0.672856 0.386082
vt 0.682334 0.349858
vt 0.734419 0.328309
vt 0.159827 0.081756
vt 0.181046 0.104586
vt 0.074168 0.140198
vt 0.366893 0.059697
vt 0.291188 0.028704
vt 0.040505 0.208769
vt 0.025518 0.222030
vt 0.020427 0.197246
vt 0.841089 0.403016
vt 0.750478 0.315832
vt 0.251868 0.383019
vt 0.794858 0.207830
vt 0.866097 0.176805
vt 0.184041 0.141492
vt 0.070815 0.175516
vt 0.141081 0.236877
vt 0.048389 0.192735
vt 0.034774 0.169507
vt 0.458545 0.023131
vt 0.171603 0.261862
vt 0.153921 0.299073
vt 0.161086 0.391405
vt 0.101177 0.282827
vt 0.109109 0.254623
vt 0.151455 0.286599
vt 0.118150 0.279859
vt 0.627730 0.081389
vt 0.557916 0.039252
vt 0.722591 0.081039
vt 0.823864 0.154506
vt 0.753725 0.208364
vt 0.670231 0.436220
vt 0.532883 0.473592
vt 0.301406 0.471203
vt 0.185144 0.436508
vt 0.083022 0.615908
vt 0.017930 0.530659
vt 0.079885 0.510851
vt 0.135413 0.879584
vt 0.119709 0.955082
vt 0.128833 0.882340
vt 0.203351 0.974636
vt 0.179657 0.863788
vt 0.308513 0.958066
vt 0.304275 0.155848
vt 0.219444 0.740892
vt 0.125858 0.848220
vt 0.042666 0.790794
vt 0.055349 0.686968
vt 0.174330 0.660540
vt 0.799900 0.642389
vt 0.674550 0.649155
vt 0.598702 0.617165
vt 0.358588 0.743184
vt 0.346510 0.611093
vt 0.922081 0.702173
vt 0.906636 0.740753
vt 0.902419 0.678645
vt 0.839345 0.889898
vt 0.751658 0.887826
vt 0.906812 0.810790
vt 0.235208 0.787609
vt 0.293819 0.853132
vt 0.629839 0.542917
vt 0.704021 0.523748
vt 0.812502 0.603152
vt 0.600354 0.792280
vt 0.358370 0.880279
vt 0.116179 0.625872
vt 0.746104 0.938600
vt 0.551721 0.949401
vt 0.834180 0.748157
vt 0.446143 0.556096
vt 0.534524 0.504732
vt 0.846783 0.807199
vt 0.803207 0.782878
vt 0.843777 0.791511
vt 0.862587 0.768413
vt 0.670839 0.695988
vt 0.225928 0.665681
vt 0.159959 0.611698
vt 0.244249 0.549895
vt 0.408784 0.529928
vt 0.411909 0.949160
vt 0.200714 0.821243
vt 0.950446 0.740945
vt 0.646602 0.973416
vt 0.942381 0.719577
vt 0.942052 0.698208
vt 0.219080 0.773519
vt 0.783200 0.034010
vt 0.962999 0.070882
vt 0.945708 0.136805
vt 0.897937 0.143134
vt 0.924294 0.343705
vt 0.055673 0.285978
vt 0.767723 0.362428
vt 0.027666 0.608137
vt 0.205763 0.531307
vt 0.240578 0.906597
vt 0.073204 0.626671
vt 0.314979 0.155529
vt 0.087156 0.847332
vt 0.943082 0.685693
vt 0.912579 0.655353
vt 0.296112 0.905463
vt 0.867203 0.024050
vt 0.730708 0.502980
vt 0.838489 0.426051
vt 0.818330 0.507184
vt 0.794577 0.401446
vt 0.653483 0.473378
vt 0.841216 0.438369
vt 0.668798 0.647489
vn 0.9931 -0.0032 0.1172
vn 0.9587 0.2661 0.1004
vn 0.6898 0.0562 0.7218
vn 0.9311 0.0553 -0.3605
vn 0.8970 0.3190 -0.3060
vn 0.9278 0.3400 -0.1534
vn 0.9766 0.2044 0.0671
vn 0.9767 -0.2146 -0.0046
vn 0.0009 0.9027 -0.4303
vn 0.1857 0.4295 0.8838
vn 0.9416 0.1968 0.2732
vn 0.7977 0.4312 0.4217
vn -0.1250 0.7027 0.7004
vn -0.4707 -0.4218 -0.7749
vn 0.5841 -0.3622 -0.7264
vn 0.0556 -0.5057 -0.8609
vn 0.6396 -0.0132 -0.7686
vn 0.0124 -0.1439 -0.9895
vn 0.5804 -0.6952 -0.4241
vn 0.1276 -0.9887 0.0783
vn -0.5090 -0.6990 -0.5024
vn -0.1032 -0.3089 0.9455
vn 0.0262 0.1763 0.9840
vn 0.9061 -0.1882 0.3789
vn -0.1297 -0.1749 -0.9760
vn -0.0270 0.3344 -0.9421
vn 0.9234 -0.2368 -0.3021
vn 0.6886 -0.5430 -0.4807
vn 0.9747 -0.2080 -0.0819
vn -0.0237 -0.7941 -0.6074
vn -0.0701 -0.9969 0.0353
vn 0.0209 0.1224 -0.9923
vn 0.9908 -0.0730 0.1138
vn 0.8911 -0.1455 0.4299
vn 0.4745 -0.6028 0.6415
vn 0.6822 -0.6575 0.3199
vn 0.8933 -0.4464 -0.0527
vn 0.8523 0.0565 0.5200
vn 0.7793 -0.4541 0.4319
vn 0.9020 0.1859 -0.3896
vn 0.0997 0.4015 -0.9104
vn -0.0291 0.5844 -0.8109
vn -0.0176 0.9967 -0.0795
vn -0.9005 0.3834 -0.2055
vn 0.0231 0.3556 0.9344
vn -0.0304 0.2687 0.9627
vn 0.3587 -0.2136 0.9087
vn -0.1415 -0.4412 0.8862
vn 0.8418 -0.5248 0.1263
vn 0.0303 0.5487 -0.8355
vn 0.2025 0.9607 -0.1896
vn 0.1999 0.7507 -0.6297
vn 0.9421 -0.1817 -0.2817
vn 0.2811 0.4713 0.8360
vn -0.9781 0.1820 0.1012
vn -0.0154 0.9494 0.3138
vn -0.9163 -0.2286 -0.3288
vn -0.9414 -0.2048 -0.2682
vn -0.9515 0.0302 -0.3063
vn -0.9638 0.2503 0.0924
vn -0.7786 0.4591 -0.4278
vn -0.6432 -0.7246 -0.2475
vn -0.7650 -0.6372 0.0935
vn -0.6761 -0.5369 -0.5046
vn -0.6492 -0.4666 0.6007
vn -0.0654 -0.8991 0.4327
vn -0.8662 0.2896 0.4073
vn -0.6324 -0.0316 -0.7740
vn -0.9828 -0.0186 0.1839
vn -0.6795 0.3284 0.6561
vn -0.5579 -0.0224 0.8296
vn -0.9749 -0.2074 -0.0806
vn -0.7383 0.1794 -0.6501
vn -0.6719 -0.5443 0.5022
vn -0.9631 -0.1252 0.2382
vn -0.7444 -0.4284 0.5122
vn -0.8450 -0.5342 0.0240
vn -0.9932 -0.1152 -0.0148
vn -0.0183 0.9994 -0.0298
vn -0.2566 0.3219 0.9113
vn 0.0359 0.3888 -0.9206
vn -0.1581 0.9770 -0.1428
vn 0.1004 -0.1289 -0.9866
usemtl 13009_Coral_Beauty_Angelfish_v1
s 1
f 7/1/1 3/2/2 17/3/3
f 7/1/1 8/4/4 5/5/5
f 30/6/6 3/2/2 5/5/5
f 3/2/2 30/6/6 6/7/7
f 7/1/1 41/8/8 8/4/4
f 6/7/7 1/9/9 61/10/10
f 36/11/11 4/12/12 34/13/13
f 63/14/14 16/15/15 14/16/16
f 20/17/17 16/15/15 15/18/18
f 38/19/19 12/20/20 76/21/21
f 46/22/22 6/7/7 61/10/10
f 52/23/23 6/7/7 46/22/22
f 6/7/7 52/23/23 4/12/12
f 17/3/3 18/24/24 7/1/1
f 6/7/7 2/25/25 60/26/26
f 21/27/27 10/28/28 14/16/16
f 16/15/15 21/27/27 14/16/16
f 21/27/27 26/29/29 10/28/28
f 19/30/30 56/31/31 10/28/28
f 64/32/32 20/17/17 15/18/18
f 20/17/17 8/4/4 16/15/15
f 7/1/1 18/24/24 23/33/33
f 24/34/34 22/35/35 29/36/36
f 28/37/37 25/38/38 27/39/39
f 25/38/38 26/29/29 23/33/33
f 23/33/33 24/34/34 25/38/38
f 28/37/37 29/36/36 10/28/28
f 29/36/36 12/20/20 38/19/19
f 9/40/40 72/41/41 31/42/42
f 32/43/43 33/44/44 30/6/6
f 64/32/32 72/41/41 20/17/17
f 35/45/45 37/46/46 36/11/11
f 52/23/23 34/13/13 4/12/12
f 13/47/47 54/48/48 22/35/35
f 40/49/49 42/50/50 43/51/51
f 44/52/52 42/53/50 45/54/53
f 43/55/51 41/56/8 39/57/54
f 42/53/50 41/56/8 43/55/51
f 44/52/52 41/56/8 42/53/50
f 8/4/4 45/58/53 21/27/27
f 23/33/33 41/8/8 7/1/1
f 26/29/29 21/27/27 41/8/8
f 45/58/53 41/8/8 21/27/27
f 75/59/55 46/60/22 62/61/56
f 75/59/55 1/62/9 2/63/25
f 49/64/57 77/65/58 83/66/59
f 48/67/60 75/59/55 71/68/61
f 58/69/62 51/70/63 57/71/64
f 22/72/35 65/73/65 11/74/66
f 34/75/13 75/59/55 55/76/67
f 59/77/68 15/78/18 63/79/14
f 47/80/69 74/81/70 48/67/60
f 60/82/26 2/63/25 1/62/9
f 48/67/60 74/81/70 75/59/55
f 65/73/65 22/72/35 54/83/48
f 47/80/69 53/84/71 74/81/70
f 57/71/64 70/85/72 49/64/57
f 50/86/73 64/87/32 59/77/68
f 69/88/74 47/80/69 68/89/75
f 66/90/76 70/85/72 67/91/77
f 81/92/78 70/85/72 47/80/69
f 51/70/63 67/91/77 70/85/72
f 75/59/55 2/63/25 33/93/44
f 32/94/43 31/95/42 33/93/44
f 72/96/41 50/86/73 71/68/61
f 55/76/67 37/97/46 73/98/79
f 53/84/71 37/97/46 74/81/70
f 55/76/67 74/81/70 37/97/46
f 51/70/63 12/99/20 11/74/66
f 13/100/47 53/84/71 54/83/48
f 65/73/65 54/83/48 53/84/71
f 76/101/21 58/69/62 19/102/30
f 75/59/55 34/75/13 52/103/23
f 78/104/80 82/105/81 77/106/58
f 77/106/58 81/107/78 78/104/80
f 81/92/78 77/65/58 49/64/57
f 60/26/26 1/9/9 6/7/7
f 6/7/7 4/12/12 3/2/2
f 16/15/15 8/4/4 21/27/27
f 9/40/40 5/5/5 8/4/4
f 30/6/6 5/5/5 9/40/40
f 63/14/14 15/18/18 16/15/15
f 14/16/16 10/28/28 56/31/31
f 76/21/21 19/30/30 38/19/19
f 4/12/12 17/3/3 3/2/2
f 13/47/47 18/24/24 17/3/3
f 72/41/41 9/40/40 8/4/4
f 8/4/4 20/17/17 72/41/41
f 1/9/9 62/108/56 61/10/10
f 18/24/24 22/35/35 24/34/34
f 29/36/36 22/35/35 11/109/66
f 28/37/37 26/29/29 25/38/38
f 83/66/59 59/77/68 63/79/14 49/64/57
f 27/39/39 29/36/36 28/37/37
f 19/30/30 10/28/28 38/19/19
f 24/34/34 23/33/33 18/24/24
f 10/28/28 26/29/29 28/37/37
f 29/36/36 38/19/19 10/28/28
f 30/6/6 2/25/25 6/7/7
f 2/25/25 30/6/6 33/44/44
f 32/43/43 30/6/6 31/42/42
f 30/6/6 9/40/40 31/42/42
f 73/110/79 36/11/11 34/13/13
f 36/11/11 73/110/79 35/45/45
f 17/3/3 4/12/12 36/11/11
f 36/11/11 37/46/46 17/3/3
f 13/47/47 22/35/35 18/24/24
f 37/46/46 13/47/47 17/3/3
f 29/36/36 11/109/66 12/20/20
f 40/49/49 45/111/53 42/50/50
f 40/49/49 43/51/51 39/112/54
f 39/57/54 41/56/8 40/113/49
f 41/114/8 45/111/53 40/49/49
f 44/115/52 45/58/53 8/4/4
f 8/4/4 41/8/8 44/115/52
f 7/1/1 5/5/5 3/2/2
f 23/33/33 26/29/29 41/8/8
f 75/59/55 62/61/56 1/62/9
f 83/66/59 71/68/61 50/86/73
f 71/68/61 75/59/55 33/93/44
f 62/61/56 46/60/22 61/116/10
f 19/102/30 58/69/62 56/117/31
f 14/118/16 56/117/31 57/71/64
f 46/60/22 75/59/55 52/103/23
f 65/73/65 53/84/71 47/80/69
f 58/69/62 76/101/21 51/70/63
f 56/117/31 58/69/62 57/71/64
f 63/79/14 14/118/16 49/64/57
f 57/71/64 49/64/57 14/118/16
f 59/77/68 83/66/59 50/86/73
f 59/77/68 64/87/32 15/78/18
f 68/89/75 47/80/69 70/85/72
f 67/91/77 51/70/63 69/88/74
f 66/90/76 68/89/75 70/85/72
f 67/91/77 69/88/74 66/90/76
f 66/90/76 69/88/74 68/89/75
f 65/73/65 47/80/69 69/88/74
f 11/74/66 65/73/65 69/88/74
f 51/70/63 11/74/66 69/88/74
f 57/71/64 51/70/63 70/85/72
f 33/93/44 31/95/42 72/96/41
f 33/93/44 72/96/41 71/68/61
f 50/86/73 72/96/41 64/87/32
f 55/76/67 73/98/79 34/75/13
f 73/98/79 37/97/46 35/119/45
f 55/76/67 75/59/55 74/81/70
f 76/101/21 12/99/20 51/70/63
f 13/100/47 37/97/46 53/84/71
f 80/120/82 82/105/81 78/104/80
f 80/121/82 79/122/83 82/123/81
f 80/121/82 81/124/78 79/122/83
f 80/121/82 78/125/80 81/124/78
f 24/34/34 29/36/36 27/39/39 25/38/38
f 82/123/81 79/122/83 77/126/58
f 77/65/58 79/127/83 83/66/59
f 79/127/83 81/92/78 83/66/59
f 48/67/60 71/68/61 83/66/59
f 81/92/78 47/80/69 83/66/59
f 47/80/69 48/67/60 83/66/59
f 81/92/78 49/64/57 70/85/72
