# Blender v2.79 (sub 0) OBJ File: ''
# www.blender.org
mtllib Reaf.mtl
o Circle
v -0.320303 -0.019402 0.545413
v -0.304741 -0.019022 0.720995
v -0.258655 -0.017896 0.889829
v -0.183815 -0.016066 1.045427
v -0.044025 -0.013711 1.244808
v 0.139432 -0.010876 1.426245
v 0.323789 -0.007574 1.509414
v 0.475715 -0.003861 1.560629
v 0.633713 -0.000000 1.577922
v 0.791711 0.003861 1.560629
v 0.943637 0.007574 1.509414
v 1.120781 0.010896 1.350068
v 1.278714 0.013800 1.206475
v 1.379432 0.016261 1.070092
v 1.487962 0.017999 0.835842
v 1.541886 0.019104 0.610303
v 1.557447 0.019484 0.434722
v 1.539259 0.019111 0.250084
v 1.480229 0.010081 0.113476
v 1.387269 0.016240 0.040377
v 1.286551 0.013778 -0.015180
v 1.163826 0.010779 -0.084488
v 0.943637 0.007574 -0.177472
v 0.791710 0.003861 -0.188452
v 0.633712 -0.000000 -0.193976
v 0.475714 -0.003861 -0.204894
v 0.323788 -0.007574 -0.165448
v 0.183772 -0.010996 -0.136256
v -0.083098 -0.013605 -0.048364
v -0.183815 -0.016066 0.045401
v -0.258655 -0.017896 0.201000
v -0.304742 -0.019022 0.369833
v -0.312522 -0.019212 0.633204
v -0.281698 -0.018459 0.805412
v -0.221235 -0.016981 0.967628
v -0.132775 -0.014838 1.113618
v 0.044004 -0.012283 1.370281
v 0.253781 -0.009285 1.467829
v 0.399752 -0.005718 1.535021
v 0.554714 -0.001931 1.569275
v 0.712712 0.001931 1.569275
v 0.867674 0.005718 1.535021
v 1.013646 0.009285 1.467829
v 1.217351 0.012300 1.262438
v 1.329073 0.015030 1.138283
v 1.416852 0.017176 0.992293
v 1.511005 0.018562 0.751425
v 1.549667 0.019294 0.522512
v 1.549667 0.019294 0.346931
v 1.516216 0.018548 0.165667
v 1.424689 0.017154 0.054076
v 1.336910 0.015009 -0.007702
v 1.225188 0.012279 -0.052912
v 1.093818 0.009068 -0.113360
v 0.867674 0.005718 -0.185052
v 0.712711 0.001931 -0.197098
v 0.554713 -0.001931 -0.189180
v 0.399751 -0.005718 -0.191055
v 0.253780 -0.009285 -0.146070
v 0.122409 -0.012496 -0.133176
v -0.133457 -0.014836 -0.004559
v -0.221235 -0.016981 0.123200
v -0.281699 -0.018459 0.285417
v -0.312522 -0.019212 0.457624
v -0.321511 0.030040 0.545413
v -0.305950 0.030420 0.720995
v -0.259863 0.031547 0.889829
v -0.185023 0.033376 1.045427
v -0.038784 0.035714 1.252975
v 0.138224 0.038566 1.426245
v 0.322580 0.041868 1.509414
v 0.474507 0.045581 1.560629
v 0.632505 0.049442 1.577922
v 0.790503 0.053304 1.560629
v 0.942429 0.057017 1.509414
v 1.119573 0.060338 1.350068
v 1.277506 0.063242 1.206475
v 1.378224 0.065703 1.070092
v 1.486754 0.067441 0.835842
v 1.532840 0.068567 0.667008
v 1.556239 0.068926 0.434722
v 1.538051 0.068553 0.250084
v 1.479021 0.059523 0.113476
v 1.386061 0.065682 0.040377
v 1.285343 0.063221 -0.015180
v 1.162617 0.060221 -0.084488
v 0.942428 0.057017 -0.177472
v 0.790502 0.053304 -0.188452
v 0.632504 0.049442 -0.193976
v 0.474506 0.045581 -0.204894
v 0.322579 0.041868 -0.165448
v 0.182563 0.038446 -0.136256
v -0.084306 0.035837 -0.048364
v -0.185024 0.033376 0.045401
v -0.259864 0.031547 0.201000
v -0.305950 0.030420 0.369833
v -0.313730 0.030230 0.633204
v -0.282906 0.030983 0.805412
v -0.222443 0.032461 0.967628
v -0.133983 0.034605 1.113618
v 0.042796 0.037159 1.370281
v 0.252572 0.040157 1.467829
v 0.398543 0.043724 1.535021
v 0.553506 0.047511 1.569275
v 0.711504 0.051373 1.569275
v 0.866466 0.055160 1.535021
v 1.012437 0.058727 1.467829
v 1.216143 0.061742 1.262438
v 1.327865 0.064472 1.138283
v 1.415644 0.066618 0.992293
v 1.509797 0.068004 0.751425
v 1.548458 0.068736 0.522512
v 1.548458 0.068736 0.346931
v 1.515008 0.067990 0.165667
v 1.423481 0.066597 0.054076
v 1.335702 0.064451 -0.007702
v 1.223980 0.061721 -0.052912
v 1.092609 0.058510 -0.113360
v 0.866465 0.055160 -0.185052
v 0.711503 0.051373 -0.197098
v 0.553505 0.047511 -0.189180
v 0.398543 0.043724 -0.191055
v 0.252571 0.040157 -0.146070
v 0.121201 0.036946 -0.133176
v -0.134665 0.034606 -0.004559
v -0.222444 0.032461 0.123200
v -0.282907 0.030983 0.285417
v -0.313730 0.030230 0.457624
vn 0.0207 -0.9998 0.0003
vn -0.0207 0.9998 -0.0003
vn 0.3193 0.0078 0.9476
vn 0.9939 0.0456 0.1002
vn 0.7394 0.0181 0.6730
vn 0.9958 0.0243 -0.0883
vn 0.6735 0.0165 0.7390
vn 0.9644 0.0236 -0.2634
vn 0.8041 0.0197 0.5942
vn 0.7314 0.0179 -0.6817
vn 0.9101 0.0222 0.4138
vn 0.6902 0.0169 -0.7234
vn 0.9721 -0.0324 0.2323
vn 0.5235 0.0128 -0.8519
vn 0.9958 0.0243 0.0883
vn 0.3810 0.0093 -0.9245
vn 0.9940 0.0243 -0.1069
vn 0.0992 0.0024 -0.9951
vn 0.8216 0.0201 -0.5697
vn 0.1087 0.0027 -0.9941
vn 0.3436 0.0084 -0.9391
vn -0.0606 -0.0015 -0.9982
vn 0.1468 0.0036 -0.9892
vn -0.1791 -0.0044 -0.9838
vn 0.4573 0.0112 -0.8892
vn -0.2666 -0.0065 -0.9638
vn -0.9958 -0.0243 0.0883
vn 0.3925 0.0096 -0.9197
vn -0.0501 -0.0012 -0.9987
vn -0.9644 -0.0236 0.2634
vn 0.0447 0.0011 -0.9990
vn -0.6560 -0.0160 -0.7546
vn -0.9009 -0.0220 0.4336
vn -0.0395 -0.0010 -0.9992
vn -0.9009 -0.0220 -0.4336
vn -0.8003 -0.0196 0.5993
vn 0.1950 0.0048 -0.9808
vn -0.9644 -0.0236 -0.2634
vn -0.8196 -0.0139 0.5728
vn -0.3193 -0.0078 -0.9476
vn -0.9958 -0.0243 -0.0883
vn -0.3417 -0.0083 0.9398
vn -0.1388 -0.0034 -0.9903
vn -0.3193 -0.0078 0.9476
vn -0.3814 -0.0093 -0.9244
vn -0.1087 -0.0027 0.9941
vn -0.7040 -0.0172 -0.7100
vn 0.1087 0.0027 0.9941
vn -0.8268 -0.0127 0.5623
vn -0.5057 -0.0124 0.8626
vn 0.5104 0.0125 0.8598
vn -0.5104 -0.0125 0.8598
vn 0.6718 0.0164 0.7406
vn 0.9009 0.0220 0.4336
vn 0.9644 0.0236 0.2634
usemtl None
s off
f 33//1 1//1 64//1 32//1 63//1 31//1 62//1 30//1 61//1 29//1 60//1 28//1 59//1 27//1 58//1 26//1 57//1 25//1 56//1 24//1 55//1 23//1 54//1 22//1 53//1 21//1 52//1 20//1 51//1 19//1 50//1 18//1 49//1 17//1 48//1 16//1 47//1 15//1 46//1 14//1 45//1 13//1 44//1 12//1 43//1 11//1 42//1 10//1 41//1 9//1 40//1 8//1 39//1 7//1 38//1 6//1 37//1 5//1 36//1 4//1 35//1 3//1 34//1 2//1
f 97//2 66//2 98//2 67//2 99//2 68//2 100//2 69//2 101//2 70//2 102//2 71//2 103//2 72//2 104//2 73//2 105//2 74//2 106//2 75//2 107//2 76//2 108//2 77//2 109//2 78//2 110//2 79//2 111//2 80//2 112//2 81//2 113//2 82//2 114//2 83//2 115//2 84//2 116//2 85//2 117//2 86//2 118//2 87//2 119//2 88//2 120//2 89//2 121//2 90//2 122//2 91//2 123//2 92//2 124//2 93//2 125//2 94//2 126//2 95//2 127//2 96//2 128//2 65//2
f 42//3 11//3 75//3 106//3
f 16//4 48//4 112//4 80//4
f 43//5 12//5 76//5 107//5
f 17//6 49//6 113//6 81//6
f 44//7 13//7 77//7 108//7
f 18//8 50//8 114//8 82//8
f 45//9 14//9 78//9 109//9
f 19//10 51//10 115//10 83//10
f 46//11 15//11 79//11 110//11
f 20//12 52//12 116//12 84//12
f 47//13 16//13 80//13 111//13
f 21//14 53//14 117//14 85//14
f 48//15 17//15 81//15 112//15
f 22//16 54//16 118//16 86//16
f 49//17 18//17 82//17 113//17
f 23//18 55//18 119//18 87//18
f 50//19 19//19 83//19 114//19
f 24//20 56//20 120//20 88//20
f 51//21 20//21 84//21 115//21
f 25//22 57//22 121//22 89//22
f 52//23 21//23 85//23 116//23
f 26//24 58//24 122//24 90//24
f 53//25 22//25 86//25 117//25
f 27//26 59//26 123//26 91//26
f 1//27 33//27 97//27 65//27
f 54//28 23//28 87//28 118//28
f 28//29 60//29 124//29 92//29
f 2//30 34//30 98//30 66//30
f 55//31 24//31 88//31 119//31
f 29//32 61//32 125//32 93//32
f 3//33 35//33 99//33 67//33
f 56//34 25//34 89//34 120//34
f 30//35 62//35 126//35 94//35
f 4//36 36//36 100//36 68//36
f 57//37 26//37 90//37 121//37
f 31//38 63//38 127//38 95//38
f 5//39 37//39 101//39 69//39
f 58//40 27//40 91//40 122//40
f 32//41 64//41 128//41 96//41
f 6//42 38//42 102//42 70//42
f 59//43 28//43 92//43 123//43
f 33//27 2//27 66//27 97//27
f 7//44 39//44 103//44 71//44
f 60//45 29//45 93//45 124//45
f 34//30 3//30 67//30 98//30
f 8//46 40//46 104//46 72//46
f 61//47 30//47 94//47 125//47
f 35//33 4//33 68//33 99//33
f 9//48 41//48 105//48 73//48
f 62//35 31//35 95//35 126//35
f 36//49 5//49 69//49 100//49
f 10//3 42//3 106//3 74//3
f 63//38 32//38 96//38 127//38
f 37//50 6//50 70//50 101//50
f 11//51 43//51 107//51 75//51
f 64//41 1//41 65//41 128//41
f 38//52 7//52 71//52 102//52
f 12//53 44//53 108//53 76//53
f 39//44 8//44 72//44 103//44
f 13//9 45//9 109//9 77//9
f 40//46 9//46 73//46 104//46
f 14//54 46//54 110//54 78//54
f 41//48 10//48 74//48 105//48
f 15//55 47//55 111//55 79//55
