# Blender v2.79 (sub 0) OBJ File: ''
# www.blender.org
mtllib Reaf.mtl
o Circle
v 0.088300 -0.021990 -1.059933
v -0.087282 -0.021568 -1.042643
v -0.256115 -0.020317 -0.991440
v -0.411714 -0.018284 -0.908290
v -0.611095 -0.015550 -0.752982
v -0.792532 -0.012217 -0.549159
v -0.875701 -0.008415 -0.344336
v -0.926916 -0.004290 -0.175541
v -0.944209 -0.000000 -0.000000
v -0.926916 0.004290 0.175541
v -0.875701 0.008415 0.344336
v -0.716355 0.012217 0.541146
v -0.572762 0.015550 0.716612
v -0.436379 0.018284 0.828513
v -0.202129 0.020317 0.949091
v 0.023410 0.021568 1.009002
v 0.198991 0.021991 1.026291
v 0.383629 0.021568 1.006084
v 0.520237 0.012376 0.940479
v 0.593336 0.018284 0.837220
v 0.648893 0.015550 0.725319
v 0.718201 0.012217 0.588967
v 0.811185 0.008415 0.344336
v 0.822165 0.004290 0.175540
v 0.827689 -0.000000 -0.000001
v 0.838607 -0.004290 -0.175542
v 0.799161 -0.008415 -0.344337
v 0.769969 -0.012217 -0.499900
v 0.682077 -0.015550 -0.796390
v 0.588312 -0.018284 -0.908291
v 0.432713 -0.020317 -0.991440
v 0.263880 -0.021568 -1.042644
v 0.000509 -0.021779 -1.051288
v -0.171699 -0.020942 -1.017042
v -0.333915 -0.019300 -0.949865
v -0.479905 -0.016917 -0.851583
v -0.736568 -0.013883 -0.655180
v -0.834116 -0.010316 -0.422118
v -0.901308 -0.006353 -0.259939
v -0.935562 -0.002145 -0.087771
v -0.935562 0.002145 0.087770
v -0.901308 0.006353 0.259939
v -0.834116 0.010316 0.422118
v -0.628725 0.013883 0.648436
v -0.504570 0.016917 0.772563
v -0.358580 0.019301 0.870088
v -0.117712 0.020942 0.974693
v 0.111201 0.021779 1.017646
v 0.286782 0.021779 1.017646
v 0.468046 0.020942 0.980482
v 0.579637 0.019300 0.878795
v 0.641415 0.016917 0.781269
v 0.686625 0.013883 0.657143
v 0.747073 0.010316 0.511186
v 0.818765 0.006353 0.259938
v 0.830811 0.002145 0.087770
v 0.822893 -0.002145 -0.087771
v 0.824768 -0.006353 -0.259940
v 0.779783 -0.010316 -0.422119
v 0.766890 -0.013883 -0.568076
v 0.638272 -0.016917 -0.852340
v 0.510513 -0.019301 -0.949866
v 0.348296 -0.020942 -1.017042
v 0.176090 -0.021779 -1.051288
v 0.088300 0.027454 -1.061141
v -0.087282 0.027877 -1.043852
v -0.256115 0.029128 -0.992648
v -0.411714 0.031161 -0.909498
v -0.619262 0.033895 -0.747025
v -0.792532 0.037228 -0.550368
v -0.875701 0.041030 -0.345545
v -0.926916 0.045155 -0.176750
v -0.944209 0.049445 -0.001208
v -0.926916 0.053735 0.174333
v -0.875701 0.057860 0.343128
v -0.716355 0.061662 0.539938
v -0.572762 0.064995 0.715404
v -0.436379 0.067729 0.827305
v -0.202129 0.069762 0.947883
v -0.033295 0.071013 0.999086
v 0.198991 0.071435 1.025083
v 0.383629 0.071013 1.004875
v 0.520237 0.061821 0.939270
v 0.593336 0.067729 0.836011
v 0.648893 0.064995 0.724110
v 0.718201 0.061662 0.587758
v 0.811185 0.057860 0.343127
v 0.822165 0.053735 0.174332
v 0.827689 0.049445 -0.001209
v 0.838607 0.045155 -0.176750
v 0.799161 0.041030 -0.345546
v 0.769969 0.037228 -0.501108
v 0.682077 0.033895 -0.797598
v 0.588312 0.031161 -0.909499
v 0.432713 0.029128 -0.992649
v 0.263880 0.027877 -1.043852
v 0.000509 0.027666 -1.052496
v -0.171699 0.028503 -1.018250
v -0.333915 0.030144 -0.951073
v -0.479905 0.032528 -0.852792
v -0.736568 0.035562 -0.656389
v -0.834116 0.039129 -0.423326
v -0.901308 0.043092 -0.261147
v -0.935562 0.047300 -0.088979
v -0.935562 0.051590 0.086562
v -0.901308 0.055798 0.258730
v -0.834116 0.059761 0.420909
v -0.628725 0.063328 0.647228
v -0.504570 0.066362 0.771354
v -0.358580 0.068745 0.868880
v -0.117712 0.070387 0.973485
v 0.111201 0.071224 1.016438
v 0.286782 0.071224 1.016438
v 0.468046 0.070387 0.979274
v 0.579637 0.068745 0.877586
v 0.641415 0.066362 0.780061
v 0.686625 0.063328 0.655934
v 0.747073 0.059761 0.509977
v 0.818765 0.055798 0.258730
v 0.830811 0.051590 0.086561
v 0.822893 0.047300 -0.088980
v 0.824768 0.043092 -0.261148
v 0.779783 0.039129 -0.423327
v 0.766890 0.035561 -0.569284
v 0.638272 0.032528 -0.853549
v 0.510513 0.030144 -0.951074
v 0.348296 0.028503 -1.018250
v 0.176090 0.027666 -1.052497
vn -0.0003 -0.9998 0.0211
vn 0.0003 0.9998 -0.0211
vn -0.9569 0.0071 0.2902
vn -0.1112 0.0479 0.9926
vn -0.7109 0.0172 0.7031
vn 0.0980 0.0243 0.9949
vn -0.7730 0.0155 0.6342
vn 0.2903 0.0234 0.9566
vn -0.6344 0.0189 0.7728
vn 0.7193 0.0170 0.6945
vn -0.4508 0.0218 0.8924
vn 0.7585 0.0159 0.6514
vn -0.2563 -0.0383 0.9658
vn 0.8750 0.0118 0.4840
vn -0.0980 0.0243 0.9949
vn 0.9375 0.0085 0.3478
vn 0.1186 0.0243 0.9926
vn 0.9960 0.0022 0.0894
vn 0.6102 0.0194 0.7920
vn 0.9952 0.0024 0.0980
vn 0.9498 0.0076 0.3128
vn 0.9985 -0.0013 -0.0545
vn 0.9912 0.0032 0.1324
vn 0.9868 -0.0040 -0.1617
vn 0.9074 0.0103 0.4200
vn 0.9704 -0.0059 -0.2416
vn -0.0980 -0.0243 -0.9949
vn 0.9335 0.0088 0.3586
vn 0.9990 -0.0011 -0.0451
vn -0.2903 -0.0234 -0.9566
vn 0.9992 0.0010 0.0402
vn 0.7875 -0.0151 -0.6162
vn -0.4714 -0.0215 -0.8816
vn 0.9994 -0.0009 -0.0355
vn 0.4714 -0.0215 -0.8816
vn -0.6395 -0.0188 -0.7686
vn 0.9844 0.0043 0.1761
vn 0.2903 -0.0234 -0.9566
vn -0.6132 -0.0127 -0.7898
vn 0.9569 -0.0071 -0.2902
vn 0.0980 -0.0243 -0.9949
vn -0.9504 -0.0076 -0.3110
vn 0.9921 -0.0031 -0.1251
vn -0.9569 -0.0071 -0.2902
vn 0.9374 -0.0085 -0.3482
vn -0.9952 -0.0024 -0.0980
vn 0.7460 -0.0163 -0.6657
vn -0.9952 0.0024 0.0980
vn -0.6028 -0.0115 -0.7978
vn -0.8844 -0.0114 -0.4666
vn -0.8819 0.0115 0.4712
vn -0.8819 -0.0115 -0.4712
vn -0.7745 0.0155 0.6324
vn -0.4714 0.0215 0.8816
vn -0.2903 0.0234 0.9566
usemtl None
s off
f 33//1 1//1 64//1 32//1 63//1 31//1 62//1 30//1 61//1 29//1 60//1 28//1 59//1 27//1 58//1 26//1 57//1 25//1 56//1 24//1 55//1 23//1 54//1 22//1 53//1 21//1 52//1 20//1 51//1 19//1 50//1 18//1 49//1 17//1 48//1 16//1 47//1 15//1 46//1 14//1 45//1 13//1 44//1 12//1 43//1 11//1 42//1 10//1 41//1 9//1 40//1 8//1 39//1 7//1 38//1 6//1 37//1 5//1 36//1 4//1 35//1 3//1 34//1 2//1
f 97//2 66//2 98//2 67//2 99//2 68//2 100//2 69//2 101//2 70//2 102//2 71//2 103//2 72//2 104//2 73//2 105//2 74//2 106//2 75//2 107//2 76//2 108//2 77//2 109//2 78//2 110//2 79//2 111//2 80//2 112//2 81//2 113//2 82//2 114//2 83//2 115//2 84//2 116//2 85//2 117//2 86//2 118//2 87//2 119//2 88//2 120//2 89//2 121//2 90//2 122//2 91//2 123//2 92//2 124//2 93//2 125//2 94//2 126//2 95//2 127//2 96//2 128//2 65//2
f 42//3 11//3 75//3 106//3
f 16//4 48//4 112//4 80//4
f 43//5 12//5 76//5 107//5
f 17//6 49//6 113//6 81//6
f 44//7 13//7 77//7 108//7
f 18//8 50//8 114//8 82//8
f 45//9 14//9 78//9 109//9
f 19//10 51//10 115//10 83//10
f 46//11 15//11 79//11 110//11
f 20//12 52//12 116//12 84//12
f 47//13 16//13 80//13 111//13
f 21//14 53//14 117//14 85//14
f 48//15 17//15 81//15 112//15
f 22//16 54//16 118//16 86//16
f 49//17 18//17 82//17 113//17
f 23//18 55//18 119//18 87//18
f 50//19 19//19 83//19 114//19
f 24//20 56//20 120//20 88//20
f 51//21 20//21 84//21 115//21
f 25//22 57//22 121//22 89//22
f 52//23 21//23 85//23 116//23
f 26//24 58//24 122//24 90//24
f 53//25 22//25 86//25 117//25
f 27//26 59//26 123//26 91//26
f 1//27 33//27 97//27 65//27
f 54//28 23//28 87//28 118//28
f 28//29 60//29 124//29 92//29
f 2//30 34//30 98//30 66//30
f 55//31 24//31 88//31 119//31
f 29//32 61//32 125//32 93//32
f 3//33 35//33 99//33 67//33
f 56//34 25//34 89//34 120//34
f 30//35 62//35 126//35 94//35
f 4//36 36//36 100//36 68//36
f 57//37 26//37 90//37 121//37
f 31//38 63//38 127//38 95//38
f 5//39 37//39 101//39 69//39
f 58//40 27//40 91//40 122//40
f 32//41 64//41 128//41 96//41
f 6//42 38//42 102//42 70//42
f 59//43 28//43 92//43 123//43
f 33//27 2//27 66//27 97//27
f 7//44 39//44 103//44 71//44
f 60//45 29//45 93//45 124//45
f 34//30 3//30 67//30 98//30
f 8//46 40//46 104//46 72//46
f 61//47 30//47 94//47 125//47
f 35//33 4//33 68//33 99//33
f 9//48 41//48 105//48 73//48
f 62//35 31//35 95//35 126//35
f 36//49 5//49 69//49 100//49
f 10//3 42//3 106//3 74//3
f 63//38 32//38 96//38 127//38
f 37//50 6//50 70//50 101//50
f 11//51 43//51 107//51 75//51
f 64//41 1//41 65//41 128//41
f 38//52 7//52 71//52 102//52
f 12//53 44//53 108//53 76//53
f 39//44 8//44 72//44 103//44
f 13//9 45//9 109//9 77//9
f 40//46 9//46 73//46 104//46
f 14//54 46//54 110//54 78//54
f 41//48 10//48 74//48 105//48
f 15//55 47//55 111//55 79//55
